<?xml version="1.0" encoding="utf-8"?>
<!-- Generator: Adobe Illustrator 14.0.0, SVG Export Plug-In . SVG Version: 6.00 Build 43363)  -->
<!DOCTYPE svg PUBLIC "-//W3C//DTD SVG 1.1//EN" "http://www.w3.org/Graphics/SVG/1.1/DTD/svg11.dtd">
<svg version="1.1" id="Layer_1" xmlns="http://www.w3.org/2000/svg" xmlns:xlink="http://www.w3.org/1999/xlink" x="0px" y="0px"
	 width="841.89px" height="595.28px" viewBox="0 0 841.89 595.28" enable-background="new 0 0 841.89 595.28" xml:space="preserve">
<text transform="matrix(1 0 0 1 202.311 231.7734)" font-family="'MyriadPro-Regular'" font-size="12">F = m*g</text>
<text transform="matrix(1 0 0 1 173.855 49.168)" font-family="'MyriadPro-Regular'" font-size="12">J0</text>
<text transform="matrix(1 0.0066 -0.0066 1 254.8037 447.3604)" font-family="'MyriadPro-Regular'" font-size="12">F = m*g</text>
<g id="XMLID_4_">
	<g>
		
			<rect x="176.32" y="321.961" transform="matrix(0.3415 -0.9399 0.9399 0.3415 -133.0664 472.7416)" fill="#C9EBFC" width="189.046" height="18.747"/>
	</g>
	<g>
		
			<rect x="261.469" y="236.812" transform="matrix(0.9399 0.3414 -0.3414 0.9399 129.3977 -72.5609)" fill="none" stroke="#000000" width="18.747" height="189.045"/>
	</g>
</g>
<g id="XMLID_3_">
	<g>
		<polygon fill="#C9EBFC" points="198.077,46.947 311.227,236.257 295.137,245.877 181.987,56.567 		"/>
	</g>
	<g>
		<polygon fill="none" stroke="#000000" points="311.227,236.257 295.137,245.877 181.987,56.567 198.077,46.947 		"/>
	</g>
</g>
<g>
	<g>
		<path d="M245.25,146.822c0.665,0,2.077-1.009,0.774-1.009C245.36,145.813,243.948,146.822,245.25,146.822L245.25,146.822z"/>
	</g>
</g>
<text transform="matrix(1 0 0 1 249.6372 159.8174)" font-family="'MyriadPro-Regular'" font-size="12">P</text>
<g>
	<line fill="#FFFFFF" x1="245.311" y1="148.546" x2="208.098" y2="171.381"/>
	<g>
		<g>
			<g>
				<polygon fill="#808285" points="244.896,147.87 220.719,162.706 219.039,159.968 208.098,171.381 223.229,166.797 
					221.549,164.059 245.726,149.223 				"/>
			</g>
		</g>
	</g>
</g>
<g>
	<line fill="#FFFFFF" x1="244.606" y1="144.209" x2="267.436" y2="181.425"/>
	<g>
		<g>
			<g>
				<polygon fill="#808285" points="243.93,144.624 258.763,168.803 256.024,170.483 267.436,181.425 262.854,166.294 
					260.115,167.974 245.282,143.794 				"/>
			</g>
		</g>
	</g>
</g>
<g>
	<line fill="#FFFFFF" x1="190.746" y1="52.001" x2="147.113" y2="50.468"/>
	<g>
		<g>
			<g>
				<polygon fill="#808285" points="190.774,51.209 162.425,50.212 162.538,47.002 147.113,50.468 162.257,55.009 162.37,51.798 
					190.718,52.794 				"/>
			</g>
		</g>
	</g>
</g>
<g>
	<line fill="#FFFFFF" x1="190.234" y1="51.859" x2="188.707" y2="95.493"/>
	<g>
		<g>
			<g>
				<polygon fill="#808285" points="189.442,51.831 188.449,80.18 185.238,80.067 188.707,95.493 193.246,80.348 190.035,80.235 
					191.027,51.887 				"/>
			</g>
		</g>
	</g>
</g>
<g>
	<g>
		<g>
			<g>
				<polygon fill="#808285" points="188.471,50.484 188.471,50.484 188.471,50.484 188.471,50.484 188.471,50.484 188.471,50.484 
					188.471,50.484 				"/>
			</g>
		</g>
	</g>
</g>
<g>
	<g>
		<g>
			<g>
				<polygon points="188.471,51.817 188.471,51.817 188.471,51.817 188.471,51.817 188.471,51.817 188.471,51.817 188.471,51.817 
									"/>
			</g>
		</g>
	</g>
</g>
<g>
	<g>
		<g>
			<g>
				<polygon points="188.471,49.817 188.471,49.817 188.471,49.817 188.471,49.817 188.471,49.817 188.471,49.817 188.471,49.817 
									"/>
			</g>
		</g>
	</g>
</g>
<g>
	<g>
		<g>
			<g>
				<polygon points="189.137,50.484 189.137,50.484 189.137,50.484 189.137,50.484 189.137,50.484 189.137,50.484 189.137,50.484 
									"/>
			</g>
		</g>
	</g>
</g>
<g>
	<g>
		<path d="M189.149,54.501c4.514,0,4.514-7,0-7S184.635,54.501,189.149,54.501L189.149,54.501z"/>
	</g>
</g>
<g>
	<g>
		<path d="M245.637,149.317c4.514,0,4.514-7,0-7S241.123,149.317,245.637,149.317L245.637,149.317z"/>
	</g>
</g>
<text transform="matrix(1 0 0 1 210.6377 177.9033)"><tspan x="0" y="0" font-family="'MyriadPro-Regular'" font-size="12">a</tspan><tspan x="5.784" y="0" font-family="'MyriadPro-Regular'" font-size="7">x</tspan></text>
<text transform="matrix(1 0 0 1 267.436 181.4258)"><tspan x="0" y="0" font-family="'MyriadPro-Regular'" font-size="12">a</tspan><tspan x="5.784" y="0" font-family="'MyriadPro-Regular'" font-size="7">y</tspan></text>
<text transform="matrix(0.9954 0.0959 -0.0959 0.9954 156.4858 61.834)"><tspan x="0" y="0" font-family="'MyriadPro-Regular'" font-size="12">n</tspan><tspan x="6.66" y="0" font-family="'MyriadPro-Regular'" font-size="7">x</tspan></text>
<text transform="matrix(1 0 0 1 173.855 91.6504)"><tspan x="0" y="0" font-family="'MyriadPro-Regular'" font-size="12">n</tspan><tspan x="6.66" y="0" font-family="'MyriadPro-Regular'" font-size="7">y</tspan></text>
<text transform="matrix(1 0 0 1 200.8037 127.4844)"><tspan x="0" y="0" font-family="'MyriadPro-Regular'" font-size="12">q</tspan><tspan x="6.756" y="0" font-family="'MyriadPro-Regular'" font-size="6">1</tspan></text>
<g>
	<g>
		<g>
			<g>
				<path d="M191.215,114.858c6.541,2.639,14.417,2.262,20.396-1.685l1.762,2.687c3.069-3.538,4.458-7.884,4.83-11.693
					c-2.859,2.797-5.998,4.542-9.224,4.993l1.762,2.687c-5.508,3.637-12.817,3.997-18.912,1.548L191.215,114.858z"/>
			</g>
		</g>
	</g>
</g>
<g>
	<g>
		<g>
			<g>
				<polygon fill="#808285" points="301.903,241.672 301.903,241.672 301.903,241.672 301.903,241.672 301.903,241.672 
					301.903,241.672 301.903,241.672 				"/>
			</g>
		</g>
	</g>
</g>
<g>
	<g>
		<g>
			<g>
				<polygon points="301.591,242.968 301.591,242.968 301.591,242.968 301.591,242.968 301.591,242.968 301.591,242.968 
					301.591,242.968 				"/>
			</g>
		</g>
	</g>
</g>
<g>
	<g>
		<g>
			<g>
				<polygon points="302.06,241.023 302.06,241.023 302.06,241.023 302.06,241.023 302.06,241.023 302.06,241.023 302.06,241.023 
									"/>
			</g>
		</g>
	</g>
</g>
<g>
	<g>
		<g>
			<g>
				<polygon points="302.551,241.828 302.551,241.828 302.551,241.828 302.551,241.828 302.551,241.828 302.551,241.828 
					302.551,241.828 				"/>
			</g>
		</g>
	</g>
</g>
<g>
	<g>
		<path d="M302.441,245.834c4.514,0,4.514-7,0-7S297.927,245.834,302.441,245.834L302.441,245.834z"/>
	</g>
</g>
<g>
	<g>
		<g>
			<g>
				<g>
				</g>
				
					<rect x="192.177" y="55.283" transform="matrix(0.861 -0.5086 0.5086 0.861 -1.6673 105.712)" fill-rule="evenodd" clip-rule="evenodd" width="0.75" height="1.245"/>
				
					<rect x="191.042" y="53.36" transform="matrix(0.8611 -0.5084 0.5084 0.8611 -0.8633 104.8035)" fill-rule="evenodd" clip-rule="evenodd" width="0.75" height="1.245"/>
				
					<rect x="189.91" y="51.442" transform="matrix(0.8611 -0.5084 0.5084 0.8611 -0.0458 103.9621)" fill-rule="evenodd" clip-rule="evenodd" width="0.75" height="1.246"/>
			</g>
		</g>
		<g>
			<g>
				<g>
				</g>
				
					<rect x="195.587" y="61.062" transform="matrix(0.8611 -0.5084 0.5084 0.8611 -4.1477 108.1834)" fill-rule="evenodd" clip-rule="evenodd" width="0.75" height="1.245"/>
				
					<rect x="194.452" y="59.138" transform="matrix(0.8611 -0.5084 0.5084 0.8611 -3.3273 107.3393)" fill-rule="evenodd" clip-rule="evenodd" width="0.75" height="1.245"/>
				
					<rect x="193.32" y="57.221" transform="matrix(0.8611 -0.5084 0.5084 0.8611 -2.5098 106.4979)" fill-rule="evenodd" clip-rule="evenodd" width="0.75" height="1.245"/>
			</g>
		</g>
		<g>
			<g>
				<g>
				</g>
				
					<rect x="198.997" y="66.84" transform="matrix(0.8614 -0.5079 0.5079 0.8614 -6.6359 110.6039)" fill-rule="evenodd" clip-rule="evenodd" width="0.75" height="1.245"/>
				
					<rect x="197.861" y="64.916" transform="matrix(0.8611 -0.5084 0.5084 0.8611 -5.7913 109.8751)" fill-rule="evenodd" clip-rule="evenodd" width="0.75" height="1.245"/>
				
					<rect x="196.73" y="62.999" transform="matrix(0.861 -0.5086 0.5086 0.861 -4.9587 109.1006)" fill-rule="evenodd" clip-rule="evenodd" width="0.75" height="1.245"/>
			</g>
		</g>
		<g>
			<g>
				<g>
				</g>
				
					<rect x="202.407" y="72.618" transform="matrix(0.8614 -0.5079 0.5079 0.8614 -9.098 113.1364)" fill-rule="evenodd" clip-rule="evenodd" width="0.75" height="1.246"/>
				
					<rect x="201.272" y="70.695" transform="matrix(0.861 -0.5086 0.5086 0.861 -8.2416 112.4804)" fill-rule="evenodd" clip-rule="evenodd" width="0.75" height="1.245"/>
				
					<rect x="200.14" y="68.777" transform="matrix(0.8611 -0.5084 0.5084 0.8611 -7.4377 111.5696)" fill-rule="evenodd" clip-rule="evenodd" width="0.75" height="1.246"/>
			</g>
		</g>
		<g>
			<g>
				<g>
				</g>
				
					<rect x="205.817" y="78.397" transform="matrix(0.8614 -0.5079 0.5079 0.8614 -11.5602 115.6689)" fill-rule="evenodd" clip-rule="evenodd" width="0.75" height="1.245"/>
				
					<rect x="204.681" y="76.473" transform="matrix(0.8611 -0.5084 0.5084 0.8611 -10.7192 114.9467)" fill-rule="evenodd" clip-rule="evenodd" width="0.75" height="1.245"/>
				
					<rect x="203.55" y="74.555" transform="matrix(0.8611 -0.5084 0.5084 0.8611 -9.9017 114.1054)" fill-rule="evenodd" clip-rule="evenodd" width="0.75" height="1.245"/>
			</g>
		</g>
		<g>
			<g>
				<g>
				</g>
				
					<rect x="209.227" y="84.175" transform="matrix(0.8614 -0.5079 0.5079 0.8614 -14.0223 118.2015)" fill-rule="evenodd" clip-rule="evenodd" width="0.75" height="1.245"/>
				
					<rect x="208.091" y="82.251" transform="matrix(0.8611 -0.5084 0.5084 0.8611 -13.1832 117.4826)" fill-rule="evenodd" clip-rule="evenodd" width="0.75" height="1.245"/>
				
					<rect x="206.96" y="80.334" transform="matrix(0.8611 -0.5084 0.5084 0.8611 -12.3656 116.6411)" fill-rule="evenodd" clip-rule="evenodd" width="0.75" height="1.246"/>
			</g>
		</g>
		<g>
			<g>
				<g>
				</g>
				
					<rect x="212.637" y="89.953" transform="matrix(0.8614 -0.5079 0.5079 0.8614 -16.4844 120.734)" fill-rule="evenodd" clip-rule="evenodd" width="0.75" height="1.246"/>
				
					<rect x="211.501" y="88.029" transform="matrix(0.8611 -0.5084 0.5084 0.8611 -15.6471 120.0184)" fill-rule="evenodd" clip-rule="evenodd" width="0.75" height="1.245"/>
				
					<rect x="210.37" y="86.112" transform="matrix(0.8611 -0.5084 0.5084 0.8611 -14.8295 119.1769)" fill-rule="evenodd" clip-rule="evenodd" width="0.75" height="1.245"/>
			</g>
		</g>
		<g>
			<g>
				<g>
				</g>
				
					<rect x="216.047" y="95.731" transform="matrix(0.8614 -0.5079 0.5079 0.8614 -18.9466 123.2665)" fill-rule="evenodd" clip-rule="evenodd" width="0.75" height="1.245"/>
				
					<rect x="214.911" y="93.808" transform="matrix(0.8611 -0.5084 0.5084 0.8611 -18.1111 122.5542)" fill-rule="evenodd" clip-rule="evenodd" width="0.75" height="1.245"/>
				
					<rect x="213.78" y="91.89" transform="matrix(0.8611 -0.5084 0.5084 0.8611 -17.2934 121.7128)" fill-rule="evenodd" clip-rule="evenodd" width="0.75" height="1.245"/>
			</g>
		</g>
		<g>
			<g>
				<g>
				</g>
				
					<rect x="219.457" y="101.51" transform="matrix(0.8613 -0.5082 0.5082 0.8613 -21.4009 125.8788)" fill-rule="evenodd" clip-rule="evenodd" width="0.749" height="1.245"/>
				
					<rect x="218.321" y="99.586" transform="matrix(0.861 -0.5086 0.5086 0.861 -20.5668 125.1692)" fill-rule="evenodd" clip-rule="evenodd" width="0.75" height="1.245"/>
				
					<rect x="217.19" y="97.669" transform="matrix(0.8611 -0.5084 0.5084 0.8611 -19.7574 124.2486)" fill-rule="evenodd" clip-rule="evenodd" width="0.75" height="1.245"/>
			</g>
		</g>
		<g>
			<g>
				<g>
				</g>
				
					<rect x="222.867" y="107.288" transform="matrix(0.8614 -0.5079 0.5079 0.8614 -23.8709 128.3315)" fill-rule="evenodd" clip-rule="evenodd" width="0.75" height="1.245"/>
				
					<rect x="221.731" y="105.365" transform="matrix(0.8611 -0.5084 0.5084 0.8611 -23.039 127.6258)" fill-rule="evenodd" clip-rule="evenodd" width="0.75" height="1.245"/>
				
					<rect x="220.6" y="103.447" transform="matrix(0.8611 -0.5084 0.5084 0.8611 -22.2214 126.7844)" fill-rule="evenodd" clip-rule="evenodd" width="0.75" height="1.245"/>
			</g>
		</g>
		<g>
			<g>
				<g>
				</g>
				
					<rect x="226.277" y="113.066" transform="matrix(0.8611 -0.5084 0.5084 0.8611 -26.3232 131.0059)" fill-rule="evenodd" clip-rule="evenodd" width="0.75" height="1.245"/>
				
					<rect x="225.141" y="111.143" transform="matrix(0.8611 -0.5084 0.5084 0.8611 -25.503 130.1617)" fill-rule="evenodd" clip-rule="evenodd" width="0.75" height="1.245"/>
				
					<rect x="224.01" y="109.225" transform="matrix(0.861 -0.5086 0.5086 0.861 -24.6789 129.4026)" fill-rule="evenodd" clip-rule="evenodd" width="0.75" height="1.245"/>
			</g>
		</g>
		<g>
			<g>
				<g>
				</g>
				
					<rect x="229.686" y="118.844" transform="matrix(0.8611 -0.5084 0.5084 0.8611 -28.7872 133.5417)" fill-rule="evenodd" clip-rule="evenodd" width="0.75" height="1.246"/>
				
					<rect x="228.551" y="116.921" transform="matrix(0.861 -0.5086 0.5086 0.861 -27.9619 132.7825)" fill-rule="evenodd" clip-rule="evenodd" width="0.75" height="1.245"/>
				
					<rect x="227.42" y="115.004" transform="matrix(0.8611 -0.5084 0.5084 0.8611 -27.1493 131.856)" fill-rule="evenodd" clip-rule="evenodd" width="0.75" height="1.245"/>
			</g>
		</g>
		<g>
			<g>
				<g>
				</g>
				
					<rect x="233.096" y="124.623" transform="matrix(0.8611 -0.5084 0.5084 0.8611 -31.2511 136.0775)" fill-rule="evenodd" clip-rule="evenodd" width="0.75" height="1.245"/>
				
					<rect x="231.961" y="122.699" transform="matrix(0.8614 -0.5079 0.5079 0.8614 -30.4376 135.0859)" fill-rule="evenodd" clip-rule="evenodd" width="0.75" height="1.245"/>
				
					<rect x="230.83" y="120.782" transform="matrix(0.8611 -0.5084 0.5084 0.8611 -29.6132 134.3919)" fill-rule="evenodd" clip-rule="evenodd" width="0.75" height="1.245"/>
			</g>
		</g>
		<g>
			<g>
				<g>
				</g>
				
					<rect x="236.506" y="130.401" transform="matrix(0.861 -0.5086 0.5086 0.861 -33.7126 138.7029)" fill-rule="evenodd" clip-rule="evenodd" width="0.75" height="1.245"/>
				
					<rect x="235.371" y="128.478" transform="matrix(0.8614 -0.5079 0.5079 0.8614 -32.8997 137.6185)" fill-rule="evenodd" clip-rule="evenodd" width="0.75" height="1.245"/>
				
					<rect x="234.24" y="126.56" transform="matrix(0.8611 -0.5084 0.5084 0.8611 -32.0772 136.9277)" fill-rule="evenodd" clip-rule="evenodd" width="0.75" height="1.245"/>
			</g>
		</g>
		<g>
			<g>
				<g>
				</g>
				
					<rect x="239.916" y="136.179" transform="matrix(0.8611 -0.5084 0.5084 0.8611 -36.179 141.1492)" fill-rule="evenodd" clip-rule="evenodd" width="0.75" height="1.246"/>
				
					<rect x="238.781" y="134.256" transform="matrix(0.8614 -0.5079 0.5079 0.8614 -35.3618 140.151)" fill-rule="evenodd" clip-rule="evenodd" width="0.75" height="1.246"/>
				
					<rect x="237.65" y="132.339" transform="matrix(0.8611 -0.5084 0.5084 0.8611 -34.5412 139.4635)" fill-rule="evenodd" clip-rule="evenodd" width="0.75" height="1.245"/>
			</g>
		</g>
		<g>
			<g>
				<g>
				</g>
				
					<rect x="243.326" y="141.958" transform="matrix(0.8611 -0.5084 0.5084 0.8611 -38.643 143.685)" fill-rule="evenodd" clip-rule="evenodd" width="0.75" height="1.245"/>
				
					<rect x="242.191" y="140.034" transform="matrix(0.8614 -0.5079 0.5079 0.8614 -37.824 142.6835)" fill-rule="evenodd" clip-rule="evenodd" width="0.75" height="1.245"/>
				
					<rect x="241.06" y="138.117" transform="matrix(0.861 -0.5086 0.5086 0.861 -37.004 142.0914)" fill-rule="evenodd" clip-rule="evenodd" width="0.75" height="1.245"/>
			</g>
		</g>
		<g>
			<g>
				<g>
				</g>
				
					<rect x="246.736" y="147.736" transform="matrix(0.8611 -0.5084 0.5084 0.8611 -41.107 146.2207)" fill-rule="evenodd" clip-rule="evenodd" width="0.75" height="1.246"/>
				
					<rect x="245.601" y="145.813" transform="matrix(0.8613 -0.5082 0.5082 0.8613 -40.2865 145.3108)" fill-rule="evenodd" clip-rule="evenodd" width="0.749" height="1.245"/>
				
					<rect x="244.469" y="143.895" transform="matrix(0.8611 -0.5084 0.5084 0.8611 -39.4691 144.535)" fill-rule="evenodd" clip-rule="evenodd" width="0.75" height="1.245"/>
			</g>
		</g>
		<g>
			<g>
				<g>
				</g>
				
					<rect x="250.146" y="153.514" transform="matrix(0.8611 -0.5084 0.5084 0.8611 -43.571 148.7565)" fill-rule="evenodd" clip-rule="evenodd" width="0.75" height="1.245"/>
				
					<rect x="249.011" y="151.591" transform="matrix(0.8614 -0.5079 0.5079 0.8614 -42.7483 147.7485)" fill-rule="evenodd" clip-rule="evenodd" width="0.75" height="1.245"/>
				
					<rect x="247.88" y="149.673" transform="matrix(0.8614 -0.5079 0.5079 0.8614 -41.9312 146.9083)" fill-rule="evenodd" clip-rule="evenodd" width="0.75" height="1.245"/>
			</g>
		</g>
		<g>
			<g>
				<g>
				</g>
				
					<rect x="253.556" y="159.293" transform="matrix(0.8611 -0.5084 0.5084 0.8611 -46.0348 151.2924)" fill-rule="evenodd" clip-rule="evenodd" width="0.75" height="1.245"/>
				
					<rect x="252.421" y="157.369" transform="matrix(0.8614 -0.5079 0.5079 0.8614 -45.2104 150.2812)" fill-rule="evenodd" clip-rule="evenodd" width="0.75" height="1.245"/>
				
					<rect x="251.29" y="155.452" transform="matrix(0.8614 -0.5079 0.5079 0.8614 -44.3933 149.4408)" fill-rule="evenodd" clip-rule="evenodd" width="0.75" height="1.246"/>
			</g>
		</g>
		<g>
			<g>
				<g>
				</g>
				
					<rect x="256.966" y="165.071" transform="matrix(0.8611 -0.5084 0.5084 0.8611 -48.4987 153.8282)" fill-rule="evenodd" clip-rule="evenodd" width="0.75" height="1.245"/>
				
					<rect x="255.831" y="163.147" transform="matrix(0.8614 -0.5079 0.5079 0.8614 -47.6725 152.8136)" fill-rule="evenodd" clip-rule="evenodd" width="0.75" height="1.246"/>
				
					<rect x="254.7" y="161.23" transform="matrix(0.8614 -0.5079 0.5079 0.8614 -46.8555 151.9732)" fill-rule="evenodd" clip-rule="evenodd" width="0.75" height="1.245"/>
			</g>
		</g>
		<g>
			<g>
				<g>
				</g>
				
					<rect x="260.376" y="170.849" transform="matrix(0.8611 -0.5084 0.5084 0.8611 -50.9627 156.364)" fill-rule="evenodd" clip-rule="evenodd" width="0.75" height="1.245"/>
				
					<rect x="259.241" y="168.926" transform="matrix(0.8611 -0.5084 0.5084 0.8611 -50.1425 155.5198)" fill-rule="evenodd" clip-rule="evenodd" width="0.75" height="1.245"/>
				
					<rect x="258.11" y="167.008" transform="matrix(0.8614 -0.5079 0.5079 0.8614 -49.3176 154.5059)" fill-rule="evenodd" clip-rule="evenodd" width="0.75" height="1.245"/>
			</g>
		</g>
		<g>
			<g>
				<g>
				</g>
				
					<rect x="263.786" y="176.628" transform="matrix(0.861 -0.5086 0.5086 0.861 -53.4327 159.0049)" fill-rule="evenodd" clip-rule="evenodd" width="0.75" height="1.245"/>
				
					<rect x="262.651" y="174.704" transform="matrix(0.861 -0.5086 0.5086 0.861 -52.6121 158.1601)" fill-rule="evenodd" clip-rule="evenodd" width="0.75" height="1.245"/>
				
					<rect x="261.52" y="172.787" transform="matrix(0.8614 -0.5079 0.5079 0.8614 -51.7798 157.0384)" fill-rule="evenodd" clip-rule="evenodd" width="0.75" height="1.246"/>
			</g>
		</g>
		<g>
			<g>
				<g>
				</g>
				
					<rect x="267.196" y="182.406" transform="matrix(0.8611 -0.5084 0.5084 0.8611 -55.8907 161.4356)" fill-rule="evenodd" clip-rule="evenodd" width="0.75" height="1.245"/>
				
					<rect x="266.061" y="180.482" transform="matrix(0.8611 -0.5084 0.5084 0.8611 -55.0704 160.5915)" fill-rule="evenodd" clip-rule="evenodd" width="0.75" height="1.246"/>
				
					<rect x="264.929" y="178.565" transform="matrix(0.8614 -0.5079 0.5079 0.8614 -54.2419 159.5708)" fill-rule="evenodd" clip-rule="evenodd" width="0.75" height="1.245"/>
			</g>
		</g>
		<g>
			<g>
				<g>
				</g>
				
					<rect x="270.606" y="188.184" transform="matrix(0.8611 -0.5084 0.5084 0.8611 -58.3546 163.9715)" fill-rule="evenodd" clip-rule="evenodd" width="0.75" height="1.245"/>
				
					<rect x="269.471" y="186.261" transform="matrix(0.8611 -0.5084 0.5084 0.8611 -57.5343 163.1273)" fill-rule="evenodd" clip-rule="evenodd" width="0.75" height="1.245"/>
				
					<rect x="268.34" y="184.343" transform="matrix(0.8613 -0.5082 0.5082 0.8613 -56.7116 162.211)" fill-rule="evenodd" clip-rule="evenodd" width="0.749" height="1.245"/>
			</g>
		</g>
		<g>
			<g>
				<g>
				</g>
				
					<rect x="274.016" y="193.963" transform="matrix(0.8611 -0.5084 0.5084 0.8611 -60.8185 166.5073)" fill-rule="evenodd" clip-rule="evenodd" width="0.75" height="1.245"/>
				
					<rect x="272.881" y="192.039" transform="matrix(0.8611 -0.5084 0.5084 0.8611 -59.9983 165.6631)" fill-rule="evenodd" clip-rule="evenodd" width="0.75" height="1.246"/>
				
					<rect x="271.749" y="190.122" transform="matrix(0.8614 -0.5079 0.5079 0.8614 -59.1662 164.6358)" fill-rule="evenodd" clip-rule="evenodd" width="0.75" height="1.245"/>
			</g>
		</g>
		<g>
			<g>
				<g>
				</g>
				
					<rect x="277.426" y="199.741" transform="matrix(0.8611 -0.5084 0.5084 0.8611 -63.2825 169.0431)" fill-rule="evenodd" clip-rule="evenodd" width="0.75" height="1.245"/>
				
					<rect x="276.291" y="197.817" transform="matrix(0.8611 -0.5084 0.5084 0.8611 -62.4623 168.1989)" fill-rule="evenodd" clip-rule="evenodd" width="0.75" height="1.245"/>
				
					<rect x="275.159" y="195.9" transform="matrix(0.8614 -0.5079 0.5079 0.8614 -61.6283 167.1685)" fill-rule="evenodd" clip-rule="evenodd" width="0.75" height="1.245"/>
			</g>
		</g>
		<g>
			<g>
				<g>
				</g>
				
					<rect x="280.836" y="205.519" transform="matrix(0.8611 -0.5084 0.5084 0.8611 -65.7465 171.579)" fill-rule="evenodd" clip-rule="evenodd" width="0.75" height="1.245"/>
				
					<rect x="279.701" y="203.596" transform="matrix(0.8611 -0.5084 0.5084 0.8611 -64.9262 170.7348)" fill-rule="evenodd" clip-rule="evenodd" width="0.75" height="1.245"/>
				
					<rect x="278.569" y="201.678" transform="matrix(0.8614 -0.5079 0.5079 0.8614 -64.0905 169.701)" fill-rule="evenodd" clip-rule="evenodd" width="0.75" height="1.246"/>
			</g>
		</g>
		<g>
			<g>
				<g>
				</g>
				
					<rect x="284.246" y="211.298" transform="matrix(0.8611 -0.5084 0.5084 0.8611 -68.2104 174.1148)" fill-rule="evenodd" clip-rule="evenodd" width="0.75" height="1.245"/>
				
					<rect x="283.111" y="209.374" transform="matrix(0.8611 -0.5084 0.5084 0.8611 -67.3902 173.2706)" fill-rule="evenodd" clip-rule="evenodd" width="0.75" height="1.246"/>
				
					<rect x="281.979" y="207.457" transform="matrix(0.8614 -0.5079 0.5079 0.8614 -66.5526 172.2335)" fill-rule="evenodd" clip-rule="evenodd" width="0.75" height="1.245"/>
			</g>
		</g>
		<g>
			<g>
				<g>
				</g>
				
					<rect x="287.656" y="217.076" transform="matrix(0.8611 -0.5084 0.5084 0.8611 -70.6744 176.6506)" fill-rule="evenodd" clip-rule="evenodd" width="0.75" height="1.245"/>
				
					<rect x="286.521" y="215.152" transform="matrix(0.8611 -0.5084 0.5084 0.8611 -69.8542 175.8064)" fill-rule="evenodd" clip-rule="evenodd" width="0.75" height="1.245"/>
				
					<rect x="285.389" y="213.235" transform="matrix(0.8613 -0.5082 0.5082 0.8613 -69.0277 174.8833)" fill-rule="evenodd" clip-rule="evenodd" width="0.749" height="1.245"/>
			</g>
		</g>
		<g>
			<g>
				<g>
				</g>
				
					<rect x="291.066" y="222.854" transform="matrix(0.8613 -0.5082 0.5082 0.8613 -73.1282 179.1026)" fill-rule="evenodd" clip-rule="evenodd" width="0.749" height="1.245"/>
				
					<rect x="289.931" y="220.93" transform="matrix(0.861 -0.5086 0.5086 0.861 -72.3323 178.4622)" fill-rule="evenodd" clip-rule="evenodd" width="0.75" height="1.245"/>
				
					<rect x="288.799" y="219.013" transform="matrix(0.8611 -0.5084 0.5084 0.8611 -71.5004 177.5008)" fill-rule="evenodd" clip-rule="evenodd" width="0.75" height="1.246"/>
			</g>
		</g>
		<g>
			<g>
				<g>
				</g>
				
					<rect x="294.476" y="228.632" transform="matrix(0.8614 -0.5079 0.5079 0.8614 -75.5756 181.5144)" fill-rule="evenodd" clip-rule="evenodd" width="0.75" height="1.245"/>
				
					<rect x="293.34" y="226.709" transform="matrix(0.8611 -0.5084 0.5084 0.8611 -74.782 180.8779)" fill-rule="evenodd" clip-rule="evenodd" width="0.75" height="1.245"/>
				
					<rect x="292.209" y="224.791" transform="matrix(0.8611 -0.5084 0.5084 0.8611 -73.9644 180.0365)" fill-rule="evenodd" clip-rule="evenodd" width="0.75" height="1.245"/>
			</g>
		</g>
		<g>
			<g>
				<g>
				</g>
				
					<rect x="297.886" y="234.411" transform="matrix(0.8614 -0.5079 0.5079 0.8614 -78.0378 184.0471)" fill-rule="evenodd" clip-rule="evenodd" width="0.75" height="1.245"/>
				
					<rect x="296.751" y="232.487" transform="matrix(0.8611 -0.5084 0.5084 0.8611 -77.2459 183.4138)" fill-rule="evenodd" clip-rule="evenodd" width="0.75" height="1.245"/>
				
					<rect x="295.619" y="230.57" transform="matrix(0.8611 -0.5084 0.5084 0.8611 -76.4284 182.5723)" fill-rule="evenodd" clip-rule="evenodd" width="0.75" height="1.246"/>
			</g>
		</g>
		<g>
			<g>
				<g>
				</g>
				
					<rect x="301.296" y="240.189" transform="matrix(0.8614 -0.5079 0.5079 0.8614 -80.4999 186.5795)" fill-rule="evenodd" clip-rule="evenodd" width="0.75" height="1.246"/>
				
					<rect x="300.161" y="238.265" transform="matrix(0.8611 -0.5084 0.5084 0.8611 -79.7099 185.9496)" fill-rule="evenodd" clip-rule="evenodd" width="0.75" height="1.245"/>
				
					<rect x="299.029" y="236.348" transform="matrix(0.8611 -0.5084 0.5084 0.8611 -78.8924 185.1081)" fill-rule="evenodd" clip-rule="evenodd" width="0.75" height="1.245"/>
			</g>
		</g>
		<g>
			<g>
				<g>
				</g>
				
					<rect x="304.706" y="245.967" transform="matrix(0.8614 -0.5079 0.5079 0.8614 -82.962 189.1121)" fill-rule="evenodd" clip-rule="evenodd" width="0.75" height="1.245"/>
				
					<rect x="303.57" y="244.044" transform="matrix(0.8611 -0.5084 0.5084 0.8611 -82.1738 188.4854)" fill-rule="evenodd" clip-rule="evenodd" width="0.75" height="1.245"/>
				
					<rect x="302.439" y="242.126" transform="matrix(0.8611 -0.5084 0.5084 0.8611 -81.3562 187.644)" fill-rule="evenodd" clip-rule="evenodd" width="0.75" height="1.245"/>
			</g>
		</g>
		<g>
			<g>
				<g>
				</g>
				
					<rect x="308.116" y="251.746" transform="matrix(0.8613 -0.5082 0.5082 0.8613 -85.4443 191.7749)" fill-rule="evenodd" clip-rule="evenodd" width="0.749" height="1.245"/>
				
					<rect x="306.981" y="249.822" transform="matrix(0.8611 -0.5084 0.5084 0.8611 -84.6378 191.0213)" fill-rule="evenodd" clip-rule="evenodd" width="0.75" height="1.245"/>
				
					<rect x="305.849" y="247.904" transform="matrix(0.8611 -0.5084 0.5084 0.8611 -83.8202 190.1798)" fill-rule="evenodd" clip-rule="evenodd" width="0.75" height="1.245"/>
			</g>
		</g>
		<g>
			<g>
				<g>
				</g>
				
					<rect x="311.526" y="257.524" transform="matrix(0.8614 -0.5079 0.5079 0.8614 -87.8864 194.177)" fill-rule="evenodd" clip-rule="evenodd" width="0.75" height="1.245"/>
				
					<rect x="310.391" y="255.6" transform="matrix(0.8611 -0.5084 0.5084 0.8611 -87.1017 193.5571)" fill-rule="evenodd" clip-rule="evenodd" width="0.75" height="1.245"/>
				
					<rect x="309.259" y="253.683" transform="matrix(0.8611 -0.5084 0.5084 0.8611 -86.2841 192.7156)" fill-rule="evenodd" clip-rule="evenodd" width="0.75" height="1.245"/>
			</g>
		</g>
		<g>
			<g>
				<g>
				</g>
				
					<rect x="314.936" y="263.302" transform="matrix(0.8614 -0.5079 0.5079 0.8614 -90.3484 196.7097)" fill-rule="evenodd" clip-rule="evenodd" width="0.75" height="1.245"/>
				
					<rect x="313.8" y="261.379" transform="matrix(0.8611 -0.5084 0.5084 0.8611 -89.5657 196.0929)" fill-rule="evenodd" clip-rule="evenodd" width="0.75" height="1.245"/>
				
					<rect x="312.669" y="259.461" transform="matrix(0.861 -0.5086 0.5086 0.861 -88.7695 195.3844)" fill-rule="evenodd" clip-rule="evenodd" width="0.75" height="1.245"/>
			</g>
		</g>
		<g>
			<g>
				<g>
				</g>
				
					<rect x="318.346" y="269.081" transform="matrix(0.8614 -0.5079 0.5079 0.8614 -92.8106 199.2422)" fill-rule="evenodd" clip-rule="evenodd" width="0.75" height="1.246"/>
				
					<rect x="317.211" y="267.157" transform="matrix(0.861 -0.5086 0.5086 0.861 -92.0526 198.7643)" fill-rule="evenodd" clip-rule="evenodd" width="0.75" height="1.245"/>
				
					<rect x="316.079" y="265.24" transform="matrix(0.8611 -0.5084 0.5084 0.8611 -91.212 197.7872)" fill-rule="evenodd" clip-rule="evenodd" width="0.75" height="1.245"/>
			</g>
		</g>
		<g>
			<g>
				<g>
				</g>
				
					<rect x="321.756" y="274.859" transform="matrix(0.8614 -0.5079 0.5079 0.8614 -95.2728 201.7746)" fill-rule="evenodd" clip-rule="evenodd" width="0.75" height="1.245"/>
				
					<rect x="320.62" y="272.935" transform="matrix(0.8611 -0.5084 0.5084 0.8611 -94.4937 201.1645)" fill-rule="evenodd" clip-rule="evenodd" width="0.75" height="1.245"/>
				
					<rect x="319.489" y="271.018" transform="matrix(0.8611 -0.5084 0.5084 0.8611 -93.676 200.3231)" fill-rule="evenodd" clip-rule="evenodd" width="0.75" height="1.245"/>
			</g>
		</g>
		<g>
			<g>
				<g>
				</g>
				
					<rect x="325.166" y="280.637" transform="matrix(0.8613 -0.5082 0.5082 0.8613 -97.7603 204.4472)" fill-rule="evenodd" clip-rule="evenodd" width="0.749" height="1.245"/>
				
					<rect x="324.03" y="278.714" transform="matrix(0.8611 -0.5084 0.5084 0.8611 -96.9576 203.7004)" fill-rule="evenodd" clip-rule="evenodd" width="0.75" height="1.245"/>
				
					<rect x="322.899" y="276.796" transform="matrix(0.8611 -0.5084 0.5084 0.8611 -96.14 202.8589)" fill-rule="evenodd" clip-rule="evenodd" width="0.75" height="1.245"/>
			</g>
		</g>
		<g>
			<g>
				<g>
				</g>
				
					<rect x="328.576" y="286.415" transform="matrix(0.8614 -0.5079 0.5079 0.8614 -100.197 206.8398)" fill-rule="evenodd" clip-rule="evenodd" width="0.75" height="1.246"/>
				
					<rect x="327.44" y="284.492" transform="matrix(0.8614 -0.5079 0.5079 0.8614 -99.3773 205.9966)" fill-rule="evenodd" clip-rule="evenodd" width="0.75" height="1.246"/>
				
					<rect x="326.309" y="282.574" transform="matrix(0.8611 -0.5084 0.5084 0.8611 -98.6039 205.3947)" fill-rule="evenodd" clip-rule="evenodd" width="0.75" height="1.245"/>
			</g>
		</g>
		<g>
			<g>
				<g>
				</g>
				
					<rect x="331.986" y="292.194" transform="matrix(0.8614 -0.5079 0.5079 0.8614 -102.6592 209.3723)" fill-rule="evenodd" clip-rule="evenodd" width="0.75" height="1.245"/>
				
					<rect x="330.85" y="290.27" transform="matrix(0.8614 -0.5079 0.5079 0.8614 -101.8394 208.5291)" fill-rule="evenodd" clip-rule="evenodd" width="0.75" height="1.245"/>
				
					<rect x="329.719" y="288.353" transform="matrix(0.8611 -0.5084 0.5084 0.8611 -101.0679 207.9306)" fill-rule="evenodd" clip-rule="evenodd" width="0.75" height="1.245"/>
			</g>
		</g>
		<g>
			<g>
				<g>
				</g>
				
					<rect x="335.395" y="297.972" transform="matrix(0.8611 -0.5084 0.5084 0.8611 -105.1696 212.1519)" fill-rule="evenodd" clip-rule="evenodd" width="0.75" height="1.245"/>
				
					<rect x="334.26" y="296.048" transform="matrix(0.8613 -0.5082 0.5082 0.8613 -104.3299 211.2069)" fill-rule="evenodd" clip-rule="evenodd" width="0.749" height="1.245"/>
				
					<rect x="333.129" y="294.131" transform="matrix(0.8611 -0.5084 0.5084 0.8611 -103.5318 210.4664)" fill-rule="evenodd" clip-rule="evenodd" width="0.75" height="1.245"/>
			</g>
		</g>
		<g>
			<g>
				<g>
				</g>
				
					<rect x="338.805" y="303.751" transform="matrix(0.8614 -0.5079 0.5079 0.8614 -107.5833 214.4372)" fill-rule="evenodd" clip-rule="evenodd" width="0.75" height="1.245"/>
				
					<rect x="337.67" y="301.827" transform="matrix(0.8614 -0.5079 0.5079 0.8614 -106.7638 213.5943)" fill-rule="evenodd" clip-rule="evenodd" width="0.75" height="1.246"/>
				
					<rect x="336.539" y="299.91" transform="matrix(0.8614 -0.5079 0.5079 0.8614 -105.9468 212.7539)" fill-rule="evenodd" clip-rule="evenodd" width="0.75" height="1.245"/>
			</g>
		</g>
		<g>
			<g>
				<g>
				</g>
				
					<rect x="342.216" y="309.529" transform="matrix(0.8614 -0.5079 0.5079 0.8614 -110.0455 216.9699)" fill-rule="evenodd" clip-rule="evenodd" width="0.75" height="1.245"/>
				
					<rect x="341.08" y="307.605" transform="matrix(0.8614 -0.5079 0.5079 0.8614 -109.2257 216.1267)" fill-rule="evenodd" clip-rule="evenodd" width="0.75" height="1.245"/>
				
					<rect x="339.949" y="305.688" transform="matrix(0.8607 -0.5091 0.5091 0.8607 -108.5404 215.9381)" fill-rule="evenodd" clip-rule="evenodd" width="0.75" height="1.245"/>
			</g>
		</g>
		<g>
			<g>
				<g>
				</g>
				
					<rect x="345.626" y="315.307" transform="matrix(0.8614 -0.5079 0.5079 0.8614 -112.5076 219.5023)" fill-rule="evenodd" clip-rule="evenodd" width="0.75" height="1.245"/>
				
					<rect x="344.49" y="313.383" transform="matrix(0.8614 -0.5079 0.5079 0.8614 -111.6879 218.6592)" fill-rule="evenodd" clip-rule="evenodd" width="0.75" height="1.245"/>
				
					<rect x="343.358" y="311.466" transform="matrix(0.8609 -0.5088 0.5088 0.8609 -110.9762 218.3285)" fill-rule="evenodd" clip-rule="evenodd" width="0.75" height="1.245"/>
			</g>
		</g>
		<g>
			<g>
				<g>
				</g>
				
					<rect x="349.035" y="321.085" transform="matrix(0.8614 -0.5079 0.5079 0.8614 -114.9698 222.0349)" fill-rule="evenodd" clip-rule="evenodd" width="0.75" height="1.245"/>
				
					<rect x="347.9" y="319.162" transform="matrix(0.8614 -0.5079 0.5079 0.8614 -114.15 221.1917)" fill-rule="evenodd" clip-rule="evenodd" width="0.75" height="1.245"/>
				
					<rect x="346.769" y="317.244" transform="matrix(0.8609 -0.5088 0.5088 0.8609 -113.442 220.8677)" fill-rule="evenodd" clip-rule="evenodd" width="0.75" height="1.245"/>
			</g>
		</g>
		<g>
			<g>
				<g>
				</g>
				
					<rect x="352.446" y="326.864" transform="matrix(0.8613 -0.5082 0.5082 0.8613 -117.4659 224.723)" fill-rule="evenodd" clip-rule="evenodd" width="0.749" height="1.245"/>
				
					<rect x="351.31" y="324.94" transform="matrix(0.8613 -0.5082 0.5082 0.8613 -116.6458 223.8792)" fill-rule="evenodd" clip-rule="evenodd" width="0.749" height="1.245"/>
				
					<rect x="350.178" y="323.022" transform="matrix(0.8609 -0.5088 0.5088 0.8609 -115.9077 223.4068)" fill-rule="evenodd" clip-rule="evenodd" width="0.75" height="1.245"/>
			</g>
		</g>
		<g>
			<g>
				<g>
				</g>
				
					<rect x="355.855" y="332.642" transform="matrix(0.8614 -0.5079 0.5079 0.8614 -119.894 227.0998)" fill-rule="evenodd" clip-rule="evenodd" width="0.75" height="1.245"/>
				
					<rect x="354.72" y="330.718" transform="matrix(0.8614 -0.5079 0.5079 0.8614 -119.0743 226.2568)" fill-rule="evenodd" clip-rule="evenodd" width="0.75" height="1.245"/>
				
					<rect x="353.588" y="328.801" transform="matrix(0.8609 -0.5088 0.5088 0.8609 -118.3735 225.9459)" fill-rule="evenodd" clip-rule="evenodd" width="0.75" height="1.245"/>
			</g>
		</g>
		<g>
			<g>
				<g>
				</g>
				
					<rect x="359.265" y="338.42" transform="matrix(0.8614 -0.5079 0.5079 0.8614 -122.3562 229.6324)" fill-rule="evenodd" clip-rule="evenodd" width="0.75" height="1.245"/>
				
					<rect x="358.13" y="336.497" transform="matrix(0.8614 -0.5079 0.5079 0.8614 -121.5364 228.7893)" fill-rule="evenodd" clip-rule="evenodd" width="0.75" height="1.245"/>
				
					<rect x="356.999" y="334.579" transform="matrix(0.8607 -0.5091 0.5091 0.8607 -120.8746 228.6434)" fill-rule="evenodd" clip-rule="evenodd" width="0.75" height="1.245"/>
			</g>
		</g>
		<g>
			<g>
				<g>
				</g>
				
					<rect x="362.675" y="344.199" transform="matrix(0.8614 -0.5079 0.5079 0.8614 -124.8183 232.1649)" fill-rule="evenodd" clip-rule="evenodd" width="0.75" height="1.245"/>
				
					<rect x="361.54" y="342.275" transform="matrix(0.8613 -0.5082 0.5082 0.8613 -124.0355 231.4826)" fill-rule="evenodd" clip-rule="evenodd" width="0.749" height="1.245"/>
				
					<rect x="360.408" y="340.357" transform="matrix(0.8609 -0.5088 0.5088 0.8609 -123.3051 231.0242)" fill-rule="evenodd" clip-rule="evenodd" width="0.75" height="1.245"/>
			</g>
		</g>
		<g>
			<g>
				<g>
				</g>
				
					<rect x="366.085" y="349.977" transform="matrix(0.8614 -0.5079 0.5079 0.8614 -127.2805 234.6974)" fill-rule="evenodd" clip-rule="evenodd" width="0.75" height="1.245"/>
				
					<rect x="364.95" y="348.053" transform="matrix(0.8614 -0.5079 0.5079 0.8614 -126.4608 233.8543)" fill-rule="evenodd" clip-rule="evenodd" width="0.75" height="1.245"/>
				
					<rect x="363.818" y="346.136" transform="matrix(0.8609 -0.5088 0.5088 0.8609 -125.7709 233.5632)" fill-rule="evenodd" clip-rule="evenodd" width="0.75" height="1.245"/>
			</g>
		</g>
		<g>
			<g>
				<g>
				</g>
				
					<rect x="369.495" y="355.755" transform="matrix(0.8614 -0.5079 0.5079 0.8614 -129.7426 237.2301)" fill-rule="evenodd" clip-rule="evenodd" width="0.75" height="1.245"/>
				
					<rect x="368.36" y="353.832" transform="matrix(0.8614 -0.5079 0.5079 0.8614 -128.9229 236.3869)" fill-rule="evenodd" clip-rule="evenodd" width="0.75" height="1.245"/>
				
					<rect x="367.228" y="351.914" transform="matrix(0.8609 -0.5088 0.5088 0.8609 -128.2366 236.1023)" fill-rule="evenodd" clip-rule="evenodd" width="0.75" height="1.245"/>
			</g>
		</g>
		<g>
			<g>
				<g>
				</g>
				
					<rect x="372.905" y="361.534" transform="matrix(0.8614 -0.5079 0.5079 0.8614 -132.2048 239.7626)" fill-rule="evenodd" clip-rule="evenodd" width="0.75" height="1.245"/>
				
					<rect x="371.77" y="359.61" transform="matrix(0.8614 -0.5079 0.5079 0.8614 -131.385 238.9194)" fill-rule="evenodd" clip-rule="evenodd" width="0.75" height="1.245"/>
				
					<rect x="370.638" y="357.692" transform="matrix(0.8609 -0.5088 0.5088 0.8609 -130.7025 238.6414)" fill-rule="evenodd" clip-rule="evenodd" width="0.75" height="1.245"/>
			</g>
		</g>
		<g>
			<g>
				<g>
				</g>
				
					<rect x="376.315" y="367.312" transform="matrix(0.8614 -0.5079 0.5079 0.8614 -134.6669 242.295)" fill-rule="evenodd" clip-rule="evenodd" width="0.75" height="1.245"/>
				
					<rect x="375.18" y="365.388" transform="matrix(0.8614 -0.5079 0.5079 0.8614 -133.8471 241.4519)" fill-rule="evenodd" clip-rule="evenodd" width="0.75" height="1.245"/>
				
					<rect x="374.048" y="363.471" transform="matrix(0.8607 -0.5091 0.5091 0.8607 -133.2089 241.3486)" fill-rule="evenodd" clip-rule="evenodd" width="0.75" height="1.245"/>
			</g>
		</g>
		<g>
			<g>
				<g>
				</g>
				
					<rect x="379.725" y="373.09" transform="matrix(0.8607 -0.5091 0.5091 0.8607 -137.3154 245.5789)" fill-rule="evenodd" clip-rule="evenodd" width="0.75" height="1.245"/>
				
					<rect x="378.59" y="371.167" transform="matrix(0.8613 -0.5082 0.5082 0.8613 -136.3516 244.1549)" fill-rule="evenodd" clip-rule="evenodd" width="0.749" height="1.245"/>
				
					<rect x="377.458" y="369.249" transform="matrix(0.8609 -0.5088 0.5088 0.8609 -135.634 243.7197)" fill-rule="evenodd" clip-rule="evenodd" width="0.75" height="1.245"/>
			</g>
		</g>
		<g>
			<g>
				<g>
				</g>
				
					<rect x="383.135" y="378.868" transform="matrix(0.8609 -0.5088 0.5088 0.8609 -139.7387 247.9465)" fill-rule="evenodd" clip-rule="evenodd" width="0.75" height="1.245"/>
				
					<rect x="382" y="376.945" transform="matrix(0.8614 -0.5079 0.5079 0.8614 -138.7714 246.5169)" fill-rule="evenodd" clip-rule="evenodd" width="0.75" height="1.245"/>
				
					<rect x="380.868" y="375.027" transform="matrix(0.8609 -0.5088 0.5088 0.8609 -138.0997 246.2588)" fill-rule="evenodd" clip-rule="evenodd" width="0.75" height="1.245"/>
			</g>
		</g>
		<g>
			<g>
				<g>
				</g>
				
					<rect x="386.545" y="384.647" transform="matrix(0.8609 -0.5088 0.5088 0.8609 -142.2045 250.4857)" fill-rule="evenodd" clip-rule="evenodd" width="0.75" height="1.245"/>
				
					<rect x="385.41" y="382.723" transform="matrix(0.8614 -0.5079 0.5079 0.8614 -141.2335 249.0495)" fill-rule="evenodd" clip-rule="evenodd" width="0.75" height="1.245"/>
				
					<rect x="384.278" y="380.806" transform="matrix(0.8609 -0.5088 0.5088 0.8609 -140.5656 248.7979)" fill-rule="evenodd" clip-rule="evenodd" width="0.75" height="1.245"/>
			</g>
		</g>
		<g>
			<g>
				<g>
				</g>
				
					<rect x="389.955" y="390.425" transform="matrix(0.8609 -0.5088 0.5088 0.8609 -144.6703 253.0248)" fill-rule="evenodd" clip-rule="evenodd" width="0.75" height="1.245"/>
				
					<rect x="388.82" y="388.501" transform="matrix(0.8614 -0.5079 0.5079 0.8614 -143.6957 251.582)" fill-rule="evenodd" clip-rule="evenodd" width="0.75" height="1.245"/>
				
					<rect x="387.688" y="386.584" transform="matrix(0.8609 -0.5088 0.5088 0.8609 -143.0313 251.3369)" fill-rule="evenodd" clip-rule="evenodd" width="0.75" height="1.245"/>
			</g>
		</g>
		<g>
			<g>
				<g>
				</g>
				
					<rect x="393.365" y="396.203" transform="matrix(0.8609 -0.5088 0.5088 0.8609 -147.136 255.5639)" fill-rule="evenodd" clip-rule="evenodd" width="0.75" height="1.245"/>
				
					<rect x="392.23" y="394.28" transform="matrix(0.8614 -0.5079 0.5079 0.8614 -146.1578 254.1145)" fill-rule="evenodd" clip-rule="evenodd" width="0.75" height="1.245"/>
				
					<rect x="391.098" y="392.362" transform="matrix(0.8609 -0.5088 0.5088 0.8609 -145.4971 253.8761)" fill-rule="evenodd" clip-rule="evenodd" width="0.75" height="1.245"/>
			</g>
		</g>
	</g>
</g>
<text transform="matrix(1 0 0 1 197.3872 62.3174)"><tspan x="0" y="0" font-family="'MyriadPro-Regular'" font-size="12">r</tspan><tspan x="3.924" y="0" font-family="'MyriadPro-Regular'" font-size="7">p</tspan></text>
<line fill="none" stroke="#000000" x1="190.412" y1="52.168" x2="244.762" y2="142.817"/>
<g>
	<g>
		<path d="M227.17,319.561c0.638,0,2.085-0.967,0.786-0.967C227.319,318.594,225.871,319.561,227.17,319.561L227.17,319.561z"/>
	</g>
</g>
<text transform="matrix(0.9986 0.0536 -0.0536 0.9986 267.1167 358.1406)" font-family="'MyriadPro-Regular'" font-size="12">R</text>
<g>
	<line fill="#FFFFFF" x1="268.125" y1="344.158" x2="225.707" y2="333.812"/>
	<g>
		<g>
			<g>
				<polygon fill="#808285" points="268.312,343.388 240.753,336.665 241.515,333.544 225.707,333.812 239.616,341.328 
					240.377,338.207 267.937,344.929 				"/>
			</g>
		</g>
	</g>
</g>
<g>
	<line fill="#FFFFFF" x1="265.756" y1="346.721" x2="251.484" y2="386.14"/>
	<g>
		<g>
			<g>
				<polygon fill="#808285" points="265.01,346.45 255.737,372.062 252.717,370.968 251.484,386.14 260.25,373.695 257.229,372.602 
					266.502,346.991 				"/>
			</g>
		</g>
	</g>
</g>
<g>
	<g>
		<path d="M268.151,348.545c4.514,0,4.514-7,0-7S263.637,348.545,268.151,348.545L268.151,348.545z"/>
	</g>
</g>
<text transform="matrix(0.9997 -0.0237 0.0237 0.9997 230.5088 328.6758)"><tspan x="0" y="0" font-family="'MyriadPro-Regular'" font-size="12">b</tspan><tspan x="6.828" y="0" font-family="'MyriadPro-Regular'" font-size="7">x</tspan></text>
<text transform="matrix(0.9997 -0.0237 0.0237 0.9997 249.6265 393.9854)"><tspan x="0" y="0" font-family="'MyriadPro-Regular'" font-size="12">b</tspan><tspan x="6.828" y="0" font-family="'MyriadPro-Regular'" font-size="7">y</tspan></text>
<text transform="matrix(0.9845 -0.1756 0.1756 0.9845 311.9492 357.9834)"><tspan x="0" y="0" font-family="'MyriadPro-Regular'" font-size="12">q</tspan><tspan x="6.756" y="0.001" font-family="'MyriadPro-Regular'" font-size="6">2</tspan></text>
<g>
	<g>
		<g>
			<g>
				<path d="M275.119,322.578c10.218,17.576,32.615,22.459,51.13,19.47l0.483,3.176c10.493-3.04,20.006-8.043,28.229-14.325
					c-9.566,3.982-19.637,6.182-29.435,6.404l0.483,3.177c-18.163,2.93-39.809-1.92-49.521-18.702L275.119,322.578z"/>
			</g>
		</g>
	</g>
</g>
<g>
	<g>
		<g>
			<g>
				<g>
				</g>
				
					<rect x="301.658" y="245.095" transform="matrix(0.9387 0.3446 -0.3446 0.9387 103.1811 -89.0338)" fill-rule="evenodd" clip-rule="evenodd" width="0.75" height="1.249"/>
				
					<rect x="302.429" y="242.994" transform="matrix(0.9386 0.345 -0.345 0.9386 102.6328 -89.5061)" fill-rule="evenodd" clip-rule="evenodd" width="0.75" height="1.248"/>
				
					<rect x="303.199" y="240.898" transform="matrix(0.9387 0.3446 -0.3446 0.9387 101.8292 -89.822)" fill-rule="evenodd" clip-rule="evenodd" width="0.75" height="1.249"/>
			</g>
		</g>
		<g>
			<g>
				<g>
				</g>
				
					<rect x="299.34" y="251.409" transform="matrix(0.9388 0.3444 -0.3444 0.9388 105.1386 -87.8047)" fill-rule="evenodd" clip-rule="evenodd" width="0.75" height="1.248"/>
				
					<rect x="300.111" y="249.307" transform="matrix(0.9386 0.345 -0.345 0.9386 104.6686 -88.3187)" fill-rule="evenodd" clip-rule="evenodd" width="0.75" height="1.248"/>
				
					<rect x="300.881" y="247.212" transform="matrix(0.9388 0.3444 -0.3444 0.9388 103.7874 -88.5922)" fill-rule="evenodd" clip-rule="evenodd" width="0.75" height="1.248"/>
			</g>
		</g>
		<g>
			<g>
				<g>
				</g>
				
					<rect x="297.021" y="257.723" transform="matrix(0.9386 0.345 -0.345 0.9386 107.3821 -86.7361)" fill-rule="evenodd" clip-rule="evenodd" width="0.75" height="1.248"/>
				
					<rect x="297.793" y="255.621" transform="matrix(0.9388 0.3444 -0.3444 0.9388 106.4946 -87.0143)" fill-rule="evenodd" clip-rule="evenodd" width="0.75" height="1.249"/>
				
					<rect x="298.562" y="253.526" transform="matrix(0.9386 0.345 -0.345 0.9386 106.0289 -87.5254)" fill-rule="evenodd" clip-rule="evenodd" width="0.75" height="1.248"/>
			</g>
		</g>
		<g>
			<g>
				<g>
				</g>
				
					<rect x="294.703" y="264.036" transform="matrix(0.9386 0.345 -0.345 0.9386 109.4178 -85.5488)" fill-rule="evenodd" clip-rule="evenodd" width="0.75" height="1.248"/>
				
					<rect x="295.475" y="261.934" transform="matrix(0.9388 0.3444 -0.3444 0.9388 108.5271 -85.8297)" fill-rule="evenodd" clip-rule="evenodd" width="0.75" height="1.248"/>
				
					<rect x="296.244" y="259.839" transform="matrix(0.9386 0.345 -0.345 0.9386 108.0646 -86.338)" fill-rule="evenodd" clip-rule="evenodd" width="0.75" height="1.248"/>
			</g>
		</g>
		<g>
			<g>
				<g>
				</g>
				
					<rect x="292.385" y="270.35" transform="matrix(0.9388 0.3444 -0.3444 0.9388 111.2365 -84.2506)" fill-rule="evenodd" clip-rule="evenodd" width="0.75" height="1.249"/>
				
					<rect x="293.156" y="268.248" transform="matrix(0.9388 0.3444 -0.3444 0.9388 110.5597 -84.645)" fill-rule="evenodd" clip-rule="evenodd" width="0.75" height="1.248"/>
				
					<rect x="293.926" y="266.153" transform="matrix(0.9386 0.345 -0.345 0.9386 110.1004 -85.1507)" fill-rule="evenodd" clip-rule="evenodd" width="0.75" height="1.249"/>
			</g>
		</g>
		<g>
			<g>
				<g>
				</g>
				
					<rect x="290.067" y="276.663" transform="matrix(0.9388 0.3444 -0.3444 0.9388 113.2691 -83.0659)" fill-rule="evenodd" clip-rule="evenodd" width="0.75" height="1.248"/>
				
					<rect x="290.838" y="274.561" transform="matrix(0.9386 0.345 -0.345 0.9386 112.8116 -83.5693)" fill-rule="evenodd" clip-rule="evenodd" width="0.75" height="1.248"/>
				
					<rect x="291.608" y="272.466" transform="matrix(0.9388 0.3444 -0.3444 0.9388 111.9179 -83.8534)" fill-rule="evenodd" clip-rule="evenodd" width="0.75" height="1.248"/>
			</g>
		</g>
		<g>
			<g>
				<g>
				</g>
				
					<rect x="287.748" y="282.977" transform="matrix(0.9386 0.345 -0.345 0.9386 115.5251 -81.9868)" fill-rule="evenodd" clip-rule="evenodd" width="0.75" height="1.248"/>
				
					<rect x="288.52" y="280.875" transform="matrix(0.9388 0.3444 -0.3444 0.9388 114.6251 -82.2757)" fill-rule="evenodd" clip-rule="evenodd" width="0.75" height="1.248"/>
				
					<rect x="289.289" y="278.78" transform="matrix(0.9388 0.3444 -0.3444 0.9388 113.9505 -82.6687)" fill-rule="evenodd" clip-rule="evenodd" width="0.75" height="1.248"/>
			</g>
		</g>
		<g>
			<g>
				<g>
				</g>
				
					<rect x="285.43" y="289.29" transform="matrix(0.9386 0.345 -0.345 0.9386 117.5608 -80.7994)" fill-rule="evenodd" clip-rule="evenodd" width="0.75" height="1.248"/>
				
					<rect x="286.202" y="287.189" transform="matrix(0.9388 0.3444 -0.3444 0.9388 116.6576 -81.0909)" fill-rule="evenodd" clip-rule="evenodd" width="0.75" height="1.248"/>
				
					<rect x="286.971" y="285.094" transform="matrix(0.9386 0.345 -0.345 0.9386 116.2076 -81.5887)" fill-rule="evenodd" clip-rule="evenodd" width="0.75" height="1.248"/>
			</g>
		</g>
		<g>
			<g>
				<g>
				</g>
				
					<rect x="283.112" y="295.604" transform="matrix(0.9388 0.3444 -0.3444 0.9388 119.3669 -79.5118)" fill-rule="evenodd" clip-rule="evenodd" width="0.75" height="1.249"/>
				
					<rect x="283.884" y="293.502" transform="matrix(0.9388 0.3444 -0.3444 0.9388 118.6902 -79.9062)" fill-rule="evenodd" clip-rule="evenodd" width="0.75" height="1.248"/>
				
					<rect x="284.653" y="291.407" transform="matrix(0.9386 0.345 -0.345 0.9386 118.2433 -80.4014)" fill-rule="evenodd" clip-rule="evenodd" width="0.75" height="1.249"/>
			</g>
		</g>
		<g>
			<g>
				<g>
				</g>
				
					<rect x="280.794" y="301.917" transform="matrix(0.9386 0.345 -0.345 0.9386 121.6323 -78.4248)" fill-rule="evenodd" clip-rule="evenodd" width="0.75" height="1.248"/>
				
					<rect x="281.565" y="299.816" transform="matrix(0.9385 0.3452 -0.3452 0.9385 121.0398 -78.8561)" fill-rule="evenodd" clip-rule="evenodd" width="0.75" height="1.249"/>
				
					<rect x="282.335" y="297.721" transform="matrix(0.9388 0.3444 -0.3444 0.9388 120.0484 -79.1147)" fill-rule="evenodd" clip-rule="evenodd" width="0.75" height="1.248"/>
			</g>
		</g>
		<g>
			<g>
				<g>
				</g>
				
					<rect x="278.475" y="308.231" transform="matrix(0.9386 0.345 -0.345 0.9386 123.668 -77.2374)" fill-rule="evenodd" clip-rule="evenodd" width="0.75" height="1.248"/>
				
					<rect x="279.247" y="306.129" transform="matrix(0.9386 0.345 -0.345 0.9386 122.9903 -77.6327)" fill-rule="evenodd" clip-rule="evenodd" width="0.75" height="1.249"/>
				
					<rect x="280.016" y="304.035" transform="matrix(0.9386 0.345 -0.345 0.9386 122.3149 -78.0267)" fill-rule="evenodd" clip-rule="evenodd" width="0.75" height="1.248"/>
			</g>
		</g>
		<g>
			<g>
				<g>
				</g>
				
					<rect x="276.157" y="314.545" transform="matrix(0.939 0.3438 -0.3438 0.939 125.2257 -75.8653)" fill-rule="evenodd" clip-rule="evenodd" width="0.75" height="1.248"/>
				
					<rect x="276.929" y="312.443" transform="matrix(0.9386 0.345 -0.345 0.9386 125.026 -76.4454)" fill-rule="evenodd" clip-rule="evenodd" width="0.75" height="1.248"/>
				
					<rect x="277.698" y="310.348" transform="matrix(0.9386 0.345 -0.345 0.9386 124.3506 -76.8393)" fill-rule="evenodd" clip-rule="evenodd" width="0.75" height="1.248"/>
			</g>
		</g>
		<g>
			<g>
				<g>
				</g>
				
					<rect x="273.839" y="320.858" transform="matrix(0.939 0.3438 -0.3438 0.939 127.2551 -74.6834)" fill-rule="evenodd" clip-rule="evenodd" width="0.75" height="1.249"/>
				
					<rect x="274.611" y="318.756" transform="matrix(0.9386 0.345 -0.345 0.9386 127.0618 -75.258)" fill-rule="evenodd" clip-rule="evenodd" width="0.75" height="1.248"/>
				
					<rect x="275.38" y="316.661" transform="matrix(0.9386 0.345 -0.345 0.9386 126.3863 -75.652)" fill-rule="evenodd" clip-rule="evenodd" width="0.75" height="1.249"/>
			</g>
		</g>
		<g>
			<g>
				<g>
				</g>
				
					<rect x="271.521" y="327.172" transform="matrix(0.9386 0.345 -0.345 0.9386 129.7755 -73.6754)" fill-rule="evenodd" clip-rule="evenodd" width="0.75" height="1.248"/>
				
					<rect x="272.293" y="325.07" transform="matrix(0.939 0.344 -0.344 0.939 128.6986 -73.927)" fill-rule="evenodd" clip-rule="evenodd" width="0.749" height="1.249"/>
				
					<rect x="273.062" y="322.975" transform="matrix(0.9386 0.345 -0.345 0.9386 128.4221 -74.4647)" fill-rule="evenodd" clip-rule="evenodd" width="0.75" height="1.248"/>
			</g>
		</g>
		<g>
			<g>
				<g>
				</g>
				
					<rect x="269.202" y="333.486" transform="matrix(0.9386 0.345 -0.345 0.9386 131.8112 -72.488)" fill-rule="evenodd" clip-rule="evenodd" width="0.75" height="1.248"/>
				
					<rect x="269.974" y="331.384" transform="matrix(0.939 0.3438 -0.3438 0.939 130.6385 -72.7129)" fill-rule="evenodd" clip-rule="evenodd" width="0.75" height="1.248"/>
				
					<rect x="270.743" y="329.288" transform="matrix(0.9386 0.345 -0.345 0.9386 130.4578 -73.2773)" fill-rule="evenodd" clip-rule="evenodd" width="0.75" height="1.248"/>
			</g>
		</g>
		<g>
			<g>
				<g>
				</g>
				
					<rect x="266.884" y="339.799" transform="matrix(0.9386 0.345 -0.345 0.9386 133.8468 -71.3006)" fill-rule="evenodd" clip-rule="evenodd" width="0.75" height="1.248"/>
				
					<rect x="267.656" y="337.697" transform="matrix(0.939 0.3438 -0.3438 0.939 132.6679 -71.5308)" fill-rule="evenodd" clip-rule="evenodd" width="0.75" height="1.248"/>
				
					<rect x="268.425" y="335.602" transform="matrix(0.9386 0.345 -0.345 0.9386 132.4935 -72.0899)" fill-rule="evenodd" clip-rule="evenodd" width="0.75" height="1.248"/>
			</g>
		</g>
		<g>
			<g>
				<g>
				</g>
				
					<rect x="264.566" y="346.113" transform="matrix(0.9386 0.345 -0.345 0.9386 135.8826 -70.1134)" fill-rule="evenodd" clip-rule="evenodd" width="0.75" height="1.248"/>
				
					<rect x="265.338" y="344.011" transform="matrix(0.9386 0.345 -0.345 0.9386 135.205 -70.5086)" fill-rule="evenodd" clip-rule="evenodd" width="0.75" height="1.248"/>
				
					<rect x="266.107" y="341.916" transform="matrix(0.939 0.3438 -0.3438 0.939 134.0241 -70.7411)" fill-rule="evenodd" clip-rule="evenodd" width="0.75" height="1.248"/>
			</g>
		</g>
		<g>
			<g>
				<g>
				</g>
				
					<rect x="262.248" y="352.426" transform="matrix(0.9386 0.345 -0.345 0.9386 137.9183 -68.9261)" fill-rule="evenodd" clip-rule="evenodd" width="0.75" height="1.248"/>
				
					<rect x="263.019" y="350.324" transform="matrix(0.9385 0.3452 -0.3452 0.9385 137.3351 -69.3495)" fill-rule="evenodd" clip-rule="evenodd" width="0.75" height="1.249"/>
				
					<rect x="263.789" y="348.229" transform="matrix(0.939 0.3438 -0.3438 0.939 136.0535 -69.559)" fill-rule="evenodd" clip-rule="evenodd" width="0.75" height="1.248"/>
			</g>
		</g>
		<g>
			<g>
				<g>
				</g>
				
					<rect x="259.929" y="358.74" transform="matrix(0.9386 0.345 -0.345 0.9386 139.954 -67.7387)" fill-rule="evenodd" clip-rule="evenodd" width="0.75" height="1.248"/>
				
					<rect x="260.701" y="356.638" transform="matrix(0.9386 0.345 -0.345 0.9386 139.2764 -68.134)" fill-rule="evenodd" clip-rule="evenodd" width="0.75" height="1.248"/>
				
					<rect x="261.47" y="354.543" transform="matrix(0.9386 0.345 -0.345 0.9386 138.601 -68.5279)" fill-rule="evenodd" clip-rule="evenodd" width="0.75" height="1.248"/>
			</g>
		</g>
		<g>
			<g>
				<g>
				</g>
				
					<rect x="257.611" y="365.053" transform="matrix(0.9385 0.3452 -0.3452 0.9385 142.087 -66.5773)" fill-rule="evenodd" clip-rule="evenodd" width="0.75" height="1.249"/>
				
					<rect x="258.383" y="362.952" transform="matrix(0.9386 0.345 -0.345 0.9386 141.3121 -66.9466)" fill-rule="evenodd" clip-rule="evenodd" width="0.75" height="1.248"/>
				
					<rect x="259.152" y="360.857" transform="matrix(0.9385 0.3452 -0.3452 0.9385 140.733 -67.3672)" fill-rule="evenodd" clip-rule="evenodd" width="0.75" height="1.249"/>
			</g>
		</g>
		<g>
			<g>
				<g>
				</g>
				
					<rect x="255.293" y="371.367" transform="matrix(0.939 0.3438 -0.3438 0.939 143.491 -65.2272)" fill-rule="evenodd" clip-rule="evenodd" width="0.75" height="1.248"/>
				
					<rect x="256.065" y="369.265" transform="matrix(0.9386 0.345 -0.345 0.9386 143.3478 -65.7592)" fill-rule="evenodd" clip-rule="evenodd" width="0.75" height="1.248"/>
				
					<rect x="256.834" y="367.17" transform="matrix(0.9386 0.345 -0.345 0.9386 142.6724 -66.1532)" fill-rule="evenodd" clip-rule="evenodd" width="0.75" height="1.249"/>
			</g>
		</g>
		<g>
			<g>
				<g>
				</g>
				
					<rect x="252.975" y="377.681" transform="matrix(0.939 0.3438 -0.3438 0.939 145.5205 -64.0452)" fill-rule="evenodd" clip-rule="evenodd" width="0.75" height="1.248"/>
				
					<rect x="253.746" y="375.578" transform="matrix(0.9385 0.3452 -0.3452 0.9385 145.4826 -64.5963)" fill-rule="evenodd" clip-rule="evenodd" width="0.75" height="1.249"/>
				
					<rect x="254.516" y="373.484" transform="matrix(0.9386 0.345 -0.345 0.9386 144.7081 -64.9659)" fill-rule="evenodd" clip-rule="evenodd" width="0.75" height="1.248"/>
			</g>
		</g>
		<g>
			<g>
				<g>
				</g>
				
					<rect x="250.656" y="383.994" transform="matrix(0.9386 0.345 -0.345 0.9386 148.0972 -62.9893)" fill-rule="evenodd" clip-rule="evenodd" width="0.75" height="1.248"/>
				
					<rect x="251.429" y="381.892" transform="matrix(0.939 0.3438 -0.3438 0.939 146.8744 -63.2567)" fill-rule="evenodd" clip-rule="evenodd" width="0.75" height="1.248"/>
				
					<rect x="252.197" y="379.797" transform="matrix(0.9386 0.345 -0.345 0.9386 146.7438 -63.7786)" fill-rule="evenodd" clip-rule="evenodd" width="0.75" height="1.248"/>
			</g>
		</g>
		<g>
			<g>
				<g>
				</g>
				
					<rect x="248.338" y="390.308" transform="matrix(0.9385 0.3452 -0.3452 0.9385 150.2346 -61.824)" fill-rule="evenodd" clip-rule="evenodd" width="0.75" height="1.249"/>
				
					<rect x="249.11" y="388.206" transform="matrix(0.939 0.3438 -0.3438 0.939 148.9038 -62.0746)" fill-rule="evenodd" clip-rule="evenodd" width="0.75" height="1.248"/>
				
					<rect x="249.879" y="386.111" transform="matrix(0.9385 0.3452 -0.3452 0.9385 148.8805 -62.614)" fill-rule="evenodd" clip-rule="evenodd" width="0.75" height="1.249"/>
			</g>
		</g>
		<g>
			<g>
				<g>
				</g>
				
					<rect x="246.02" y="396.621" transform="matrix(0.9386 0.345 -0.345 0.9386 152.1686 -60.6147)" fill-rule="evenodd" clip-rule="evenodd" width="0.75" height="1.248"/>
				
					<rect x="246.792" y="394.519" transform="matrix(0.939 0.3438 -0.3438 0.939 150.9333 -60.8926)" fill-rule="evenodd" clip-rule="evenodd" width="0.75" height="1.248"/>
				
					<rect x="247.561" y="392.424" transform="matrix(0.9386 0.345 -0.345 0.9386 150.8153 -61.404)" fill-rule="evenodd" clip-rule="evenodd" width="0.75" height="1.248"/>
			</g>
		</g>
		<g>
			<g>
				<g>
				</g>
				
					<rect x="243.702" y="402.935" transform="matrix(0.9386 0.345 -0.345 0.9386 154.2043 -59.4273)" fill-rule="evenodd" clip-rule="evenodd" width="0.75" height="1.248"/>
				
					<rect x="244.474" y="400.833" transform="matrix(0.9386 0.345 -0.345 0.9386 153.5267 -59.8225)" fill-rule="evenodd" clip-rule="evenodd" width="0.75" height="1.249"/>
				
					<rect x="245.243" y="398.738" transform="matrix(0.939 0.3438 -0.3438 0.939 152.2894 -60.1028)" fill-rule="evenodd" clip-rule="evenodd" width="0.75" height="1.248"/>
			</g>
		</g>
		<g>
			<g>
				<g>
				</g>
				
					<rect x="241.383" y="409.248" transform="matrix(0.9386 0.345 -0.345 0.9386 156.2401 -58.2399)" fill-rule="evenodd" clip-rule="evenodd" width="0.75" height="1.248"/>
				
					<rect x="242.155" y="407.147" transform="matrix(0.9386 0.345 -0.345 0.9386 155.5624 -58.6353)" fill-rule="evenodd" clip-rule="evenodd" width="0.75" height="1.248"/>
				
					<rect x="242.925" y="405.052" transform="matrix(0.939 0.3438 -0.3438 0.939 154.3188 -58.9207)" fill-rule="evenodd" clip-rule="evenodd" width="0.75" height="1.248"/>
			</g>
		</g>
	</g>
</g>
<g>
	<g>
		<path d="M248.432,338.916c0.42,0,2.207-0.814,1.246-0.814C249.258,338.102,247.471,338.916,248.432,338.916L248.432,338.916z"/>
	</g>
</g>
<text transform="matrix(0.999 0.0458 -0.0458 0.999 272.6724 310.999)"><tspan x="0" y="0" font-family="'MyriadPro-Regular'" font-size="12">r</tspan><tspan x="3.924" y="0" font-family="'MyriadPro-Regular'" font-size="7">r</tspan></text>
<line fill="none" stroke="#000000" x1="303.854" y1="242.302" x2="267.092" y2="340.734"/>
<text transform="matrix(0.9998 0.0205 -0.0205 0.9998 284.9829 253.4551)" font-family="'MyriadPro-Regular'" font-size="12">J1</text>
<g>
	<line fill="none" stroke="#000000" x1="245.34" y1="146.961" x2="245.34" y2="138.961"/>
	<line fill="none" stroke="#000000" x1="245.34" y1="146.586" x2="238.84" y2="142.586"/>
	<line stroke="#000000" x1="238.84" y1="142.586" x2="245.34" y2="138.586"/>
	<g>
		<g>
			<path d="M242.915,143.238c-0.647-0.232-1.173-0.583-1.669-1.057c-0.051,0.393-0.101,0.785-0.152,1.178
				c1.279-0.957,2.792-1.563,3.902-2.742c-0.427-0.177-0.854-0.354-1.28-0.53c0,1.167,0,2.333,0,3.5
				c0.427-0.177,0.854-0.354,1.28-0.53c-0.55-0.602-0.898-1.355-1.652-1.742c-0.425-0.219-0.971-0.039-1.102,0.448
				c-0.189,0.704-1.031,0.406-1.523,0.177c-0.871-0.407-1.633,0.886-0.757,1.295c1.394,0.652,3.246,0.715,3.727-1.073
				c-0.367,0.149-0.734,0.299-1.102,0.448c0.594,0.306,0.906,1.024,1.348,1.508c0.45,0.492,1.28,0.103,1.28-0.53
				c0-1.167,0-2.333,0-3.5c0-0.64-0.826-1.013-1.28-0.53c-1.017,1.081-2.424,1.629-3.598,2.508
				c-0.374,0.279-0.532,0.814-0.152,1.178c0.688,0.658,1.436,1.122,2.331,1.443C243.429,145.012,243.818,143.562,242.915,143.238
				L242.915,143.238z"/>
		</g>
	</g>
	<g>
		<g>
			<path d="M243.801,145.679c1.935,0,1.935-3,0-3S241.866,145.679,243.801,145.679L243.801,145.679z"/>
		</g>
	</g>
</g>
<g>
	<line fill="none" stroke="#000000" x1="266.945" y1="344.34" x2="274.072" y2="340.703"/>
	<line fill="none" stroke="#000000" x1="267.28" y1="344.17" x2="267.889" y2="336.562"/>
	<line stroke="#000000" x1="267.889" y1="336.562" x2="274.407" y2="340.534"/>
	<g>
		<g>
			<path d="M269.175,340.638c-0.095-0.752-0.038-1.422,0.176-2.15c-0.367,0.149-0.734,0.299-1.102,0.448
				c1.437,0.707,2.665,1.767,4.223,2.225c-0.06-0.457-0.12-0.914-0.179-1.371c-1.04,0.529-2.079,1.06-3.118,1.59
				c0.367,0.282,0.734,0.564,1.102,0.847c0.295-0.778,0.782-1.409,0.792-2.273c0.006-0.512-0.481-0.82-0.949-0.724
				c-0.694,0.145-0.782-0.844-0.8-1.33c-0.035-0.965-1.535-0.968-1.5,0c0.057,1.586,0.893,3.151,2.698,2.777
				c-0.316-0.241-0.633-0.482-0.949-0.724c-0.008,0.646-0.513,1.278-0.739,1.875c-0.251,0.664,0.571,1.117,1.102,0.847
				c1.039-0.53,2.079-1.06,3.118-1.59c0.599-0.306,0.413-1.196-0.179-1.371c-1.419-0.417-2.552-1.427-3.865-2.072
				c-0.436-0.215-0.958-0.041-1.102,0.448c-0.249,0.846-0.34,1.672-0.23,2.549C267.794,341.584,269.296,341.596,269.175,340.638
				L269.175,340.638z"/>
		</g>
	</g>
	<g>
		<g>
			<path d="M268.725,343.204c1.935,0,1.935-3,0-3S266.79,343.204,268.725,343.204L268.725,343.204z"/>
		</g>
	</g>
</g>
<text transform="matrix(0.9991 0.0436 -0.0436 0.9991 240.9834 417.1348)" font-family="'MyriadPro-Regular'" font-size="12">J2</text>
<ellipse fill="none" stroke="#000000" cx="210.149" cy="451.48" rx="43.286" ry="41.12"/>
<g>
	<g>
		<g>
			<g>
				<polygon points="267.195,345.977 266.463,405.42 263.25,405.38 266.859,437.479 271.262,405.479 268.049,405.439 
					268.782,345.996 				"/>
			</g>
		</g>
	</g>
</g>
<g>
	<g>
		<path d="M210.667,455.165c4.514,0,4.514-7,0-7S206.153,455.165,210.667,455.165L210.667,455.165z"/>
	</g>
</g>
<g>
	<g>
		<g>
			<g>
				<polygon points="244.518,142.773 244.518,202.221 241.305,202.221 245.311,234.273 249.317,202.221 246.104,202.221 
					246.104,142.773 				"/>
			</g>
		</g>
	</g>
</g>
<text transform="matrix(1 0 0 1 170 291.0781)" font-family="'MyriadPro-Regular'" font-size="12">d1</text>
<text transform="matrix(1 0 0 1 199.8853 443.999)" font-family="'MyriadPro-Regular'" font-size="12">ta</text>
<line stroke="#000000" x1="210.555" y1="452.085" x2="210.171" y2="409.281"/>
<text transform="matrix(1 0 0 1 234.5869 432.3164)" font-family="'MyriadPro-Regular'" font-size="12">S</text>
<line fill="none" stroke="#000000" x1="212.78" y1="42.124" x2="328" y2="224.729"/>
<text transform="matrix(1 0 0 1 273 114.999)" font-family="'MyriadPro-Regular'" font-size="12">bb</text>
<line stroke="#000000" x1="269.904" y1="434.774" x2="327.638" y2="254.633"/>
<text transform="matrix(1 0 0 1 289.3828 397.7334)" font-family="'MyriadPro-Regular'" font-size="12">ob</text>
<text transform="matrix(1 0 0 1 212.812 422.7334)" font-family="'MyriadPro-Regular'" font-size="12"></text>
<g>
	<g>
		<g>
			<g>
				<path d="M210.755,426.256c3.365-1.548,7.48-1.678,10.468,0.36l-1.864,2.617c1.683-0.446,3.853,0.185,5.764,1.93
					c0.699-2.307,0.696-5.499-1.116-8.456l-1.864,2.617c-3.609-2.466-8.349-2.216-12.048-0.512L210.755,426.256z"/>
			</g>
		</g>
	</g>
</g>
<g>
	<line fill="none" stroke="#000000" x1="210.967" y1="409.32" x2="207.444" y2="416.504"/>
	<line fill="none" stroke="#000000" x1="210.8" y1="409.656" x2="214.876" y2="416.111"/>
	<line stroke="#000000" x1="214.876" y1="416.111" x2="207.277" y2="416.84"/>
	<g>
		<g>
			<path d="M211.472,413.7c0.479,0.498,0.812,1.024,1.054,1.672c0.174-0.308,0.349-0.615,0.524-0.923
				c-1.51,0.28-3.065,0.167-4.525,0.705c0.282,0.368,0.564,0.735,0.847,1.103c0.514-1.048,1.029-2.095,1.542-3.143
				c-0.457-0.061-0.914-0.12-1.371-0.18c0.225,0.779,0.211,1.621,0.707,2.3c0.27,0.37,0.825,0.538,1.178,0.151
				c0.56-0.614,1.188,0.126,1.57,0.594c0.612,0.75,1.667-0.318,1.061-1.061c-0.945-1.156-2.525-1.873-3.691-0.594
				c0.393,0.051,0.785,0.102,1.178,0.151c-0.402-0.55-0.371-1.302-0.555-1.94c-0.169-0.588-1.074-0.784-1.371-0.18
				c-0.514,1.048-1.028,2.096-1.542,3.143c-0.262,0.534,0.175,1.35,0.847,1.103c1.452-0.536,3.02-0.427,4.525-0.705
				c0.377-0.07,0.659-0.562,0.524-0.923c-0.333-0.891-0.778-1.647-1.439-2.334C211.86,411.942,210.801,413.004,211.472,413.7
				L211.472,413.7z"/>
		</g>
	</g>
	<g>
		<g>
			<path d="M211.124,413.996c1.935,0,1.935-3,0-3S209.189,413.996,211.124,413.996L211.124,413.996z"/>
		</g>
	</g>
</g>
<g>
	<g>
		<path d="M238.15,421.761c4.514,0,4.514-7,0-7S233.636,421.761,238.15,421.761L238.15,421.761z"/>
	</g>
</g>
<text transform="matrix(0.9989 -0.0467 0.0467 0.9989 222.4004 403.2109)"><tspan x="0" y="0" font-family="'MyriadPro-Regular'" font-size="12">c</tspan><tspan x="5.376" y="0" font-family="'MyriadPro-Regular'" font-size="7">x</tspan></text>
<text transform="matrix(0.9989 -0.0467 0.0467 0.9989 228.8047 451.2119)"><tspan x="0" y="0" font-family="'MyriadPro-Regular'" font-size="12">c</tspan><tspan x="5.376" y="-0.001" font-family="'MyriadPro-Regular'" font-size="7">y</tspan></text>
<g>
	<line fill="#FFFFFF" x1="237.508" y1="418.573" x2="202.946" y2="391.896"/>
	<g>
		<g>
			<g>
				<polygon fill="#808285" points="237.993,417.945 215.538,400.613 217.501,398.069 202.946,391.896 212.605,404.412 
					214.568,401.869 237.023,419.201 				"/>
			</g>
		</g>
	</g>
</g>
<g>
	<line fill="#FFFFFF" x1="237.23" y1="419.308" x2="210.95" y2="451.972"/>
	<g>
		<g>
			<g>
				<polygon fill="#808285" points="236.612,418.811 219.538,440.032 217.035,438.019 210.95,451.972 223.277,443.041 
					220.774,441.026 237.849,419.805 				"/>
			</g>
		</g>
	</g>
</g>
<line fill="none" stroke="#000000" x1="188.471" y1="51.817" x2="189.137" y2="450.571"/>
<line stroke="#000000" x1="211.975" y1="456.184" x2="187.804" y2="455.999"/>
<text transform="matrix(1 0 0 1 193.6411 466.0781)" font-family="'MyriadPro-Regular'" font-size="12">d2</text>
<text transform="matrix(1 0 0 1 219.7236 422.1631)" font-family="'MyriadPro-Regular'" font-size="12">,</text>
</svg>
